<svg xmlns="http://www.w3.org/2000/svg" viewBox="0 0 640 480">
  <rect width="640" height="480" fill="#0b0e14"/>
  <rect x="0" y="0" width="640" height="480" fill="none" stroke="#9d6bff" stroke-width="3"/>
  <circle cx="500" cy="90" r="3" fill="#d7e0e8"/>
  <circle cx="560" cy="140" r="2" fill="#d7e0e8"/>
  <circle cx="120" cy="70" r="2" fill="#d7e0e8"/>
  <circle cx="80" cy="150" r="3" fill="#d7e0e8"/>
  <circle cx="420" cy="60" r="2" fill="#d7e0e8"/>
  <polygon points="0,420 150,400 260,430 400,395 550,415 640,400 640,480 0,480" fill="#232a36"/>
  <g transform="translate(300,300)">
    <polygon points="-20,20 20,20 12,-20 -12,-20" fill="none" stroke="#ffb627" stroke-width="4"/>
    <line x1="-20" y1="20" x2="-32" y2="34" stroke="#ffb627" stroke-width="4"/>
    <line x1="20" y1="20" x2="32" y2="34" stroke="#ffb627" stroke-width="4"/>
    <polygon points="-6,-20 0,-38 6,-20" fill="#ff3e9a"/>
  </g>
  <text x="320" y="440" font-family="monospace" font-size="38" font-weight="bold" fill="#5ee6d9" text-anchor="middle" letter-spacing="8">LUNAR LANDER</text>
</svg>
